<?xml version="1.0" standalone="no"?>
<!DOCTYPE svg PUBLIC "-//W3C//DTD SVG 20010904//EN"
 "http://www.w3.org/TR/2001/REC-SVG-20010904/DTD/svg10.dtd">
<svg version="1.0" xmlns="http://www.w3.org/2000/svg"
 width="1080.000000pt" height="1080.000000pt" viewBox="0 0 1080.000000 1080.000000"
 preserveAspectRatio="xMidYMid meet">
<metadata>
Created by potrace 1.14, written by Peter Selinger 2001-2017
</metadata>
<g transform="translate(0.000000,1080.000000) scale(0.100000,-0.100000)"
fill="#000000" stroke="none">
<path d="M0 5400 l0 -5400 5400 0 5400 0 0 5400 0 5400 -5400 0 -5400 0 0
-5400z m6628 1938 c9 -9 12 -193 12 -765 l0 -753 753 0 c572 0 756 -3 765 -12
9 -9 12 -195 12 -777 l0 -766 -233 -232 -232 -233 -2300 0 -2300 0 -233 233
-232 232 2 775 3 775 763 3 762 2 0 749 c0 412 3 756 6 765 6 14 123 16 1223
16 933 0 1220 -3 1229 -12z"/>
<path d="M4445 7100 l210 -210 750 0 750 0 210 210 210 210 -1170 0 -1170 0
210 -210z"/>
<path d="M4202 6553 l3 -728 208 -3 207 -2 0 522 0 523 -206 208 c-113 114
-207 207 -210 207 -2 0 -3 -327 -2 -727z"/>
<path d="M6388 7073 l-205 -208 1 -520 1 -520 207 0 208 0 2 728 c2 400 1 727
-2 727 -3 0 -98 -93 -212 -207z"/>
<path d="M4660 6340 l0 -520 745 0 745 0 0 520 0 520 -745 0 -745 0 0 -520z"/>
<path d="M4240 5782 c0 -4 86 -93 190 -197 l190 -190 0 198 0 197 -190 0
c-104 0 -190 -3 -190 -8z"/>
<path d="M4660 5580 l0 -210 745 0 745 0 -2 208 -3 207 -742 3 -743 2 0 -210z"/>
<path d="M6185 5780 c-7 -12 -4 -360 3 -374 5 -9 382 363 382 376 0 12 -378
10 -385 -2z"/>
<path d="M7363 5782 l-723 -2 0 -205 0 -205 528 0 527 0 204 204 c112 112 199
205 195 207 -5 2 -334 3 -731 1z"/>
<path d="M2910 5575 l205 -205 525 2 525 3 0 200 0 200 -730 3 -730 2 205
-205z"/>
<path d="M2680 5022 l0 -732 205 0 205 0 0 528 0 527 -205 205 -205 205 0
-733z"/>
<path d="M4201 5560 l-1 -190 198 0 197 0 -190 190 c-104 104 -193 190 -196
190 -4 0 -7 -85 -8 -190z"/>
<path d="M6405 5560 l-190 -190 193 0 192 0 0 190 c0 105 -1 190 -3 190 -1 0
-88 -85 -192 -190z"/>
<path d="M7917 5542 l-207 -207 0 -523 0 -522 210 0 210 0 0 730 c0 402 -1
730 -3 730 -1 0 -96 -93 -210 -208z"/>
<path d="M3130 4810 l0 -520 518 2 517 3 0 515 0 515 -517 3 -518 2 0 -520z"/>
<path d="M4207 5323 c-4 -3 -7 -235 -7 -515 l0 -508 210 0 210 0 0 515 0 515
-203 0 c-112 0 -207 -3 -210 -7z"/>
<path d="M4660 4815 l0 -515 745 0 745 0 0 515 0 515 -745 0 -745 0 0 -515z"/>
<path d="M6190 4815 l0 -515 205 0 205 0 0 515 0 515 -205 0 -205 0 0 -515z"/>
<path d="M6640 4810 l0 -520 520 0 520 0 0 520 0 520 -520 0 -520 0 0 -520z"/>
<path d="M2710 4252 c0 -4 86 -93 190 -197 l190 -190 0 198 0 197 -190 0
c-104 0 -190 -3 -190 -8z"/>
<path d="M3130 4050 l0 -210 733 0 732 0 -210 210 -211 210 -522 0 -522 0 0
-210z"/>
<path d="M4230 4257 c0 -1 88 -90 195 -197 l195 -195 0 198 0 197 -195 0
c-107 0 -195 -1 -195 -3z"/>
<path d="M4660 4050 l0 -210 745 0 745 0 0 210 0 210 -745 0 -745 0 0 -210z"/>
<path d="M6190 4063 l0 -198 195 195 c107 107 195 196 195 197 0 2 -88 3 -195
3 l-195 0 0 -197z"/>
<path d="M6425 4050 l-210 -210 733 0 732 0 0 210 0 210 -523 0 -522 0 -210
-210z"/>
<path d="M7717 4253 c-10 -9 -9 -383 1 -383 9 0 382 373 382 383 0 9 -374 10
-383 0z"/>
</g>
</svg>
