<svg xmlns="http://www.w3.org/2000/svg" xmlns:xlink="http://www.w3.org/1999/xlink" viewBox="0 0 1569 2324"><defs><style>.cls-1{fill:#18181a;}.cls-2{fill:url(#linear-gradient);}.cls-3{fill:url(#linear-gradient-2);}.cls-4{fill:url(#linear-gradient-3);}.cls-5{fill:url(#linear-gradient-4);}.cls-6{fill:url(#linear-gradient-5);}.cls-7{fill:url(#radial-gradient);}.cls-8{fill:url(#linear-gradient-6);}.cls-9{fill:url(#linear-gradient-7);}.cls-10{fill:url(#linear-gradient-8);}.cls-11{fill:url(#linear-gradient-9);}.cls-12{fill:url(#linear-gradient-10);}</style><linearGradient id="linear-gradient" x1="612.74" y1="805.11" x2="612.74" y2="1086.9" gradientUnits="userSpaceOnUse"><stop offset="0" stop-color="#4885f8"/><stop offset="1" stop-color="#f0919f"/></linearGradient><linearGradient id="linear-gradient-2" x1="1039.86" y1="1691.95" x2="1039.86" y2="2067.5" xlink:href="#linear-gradient"/><linearGradient id="linear-gradient-3" x1="763.81" y1="1860.99" x2="763.81" y2="256.5" xlink:href="#linear-gradient"/><linearGradient id="linear-gradient-4" x1="784.5" y1="29" x2="784.5" y2="2295" gradientUnits="userSpaceOnUse"><stop offset="0.01" stop-color="#f0919f"/><stop offset="1" stop-color="#4885f8"/></linearGradient><linearGradient id="linear-gradient-5" x1="784.5" y1="64" x2="784.5" y2="2260" gradientUnits="userSpaceOnUse"><stop offset="0" stop-color="#4885f8"/><stop offset="0.99" stop-color="#f0919f"/></linearGradient><radialGradient id="radial-gradient" cx="1039.06" cy="1405.78" r="338.92" gradientUnits="userSpaceOnUse"><stop offset="0" stop-color="#f0919f"/><stop offset="1" stop-color="#4885f8"/></radialGradient><linearGradient id="linear-gradient-6" x1="530.85" y1="1272.91" x2="1354.67" y2="1272.91" xlink:href="#linear-gradient"/><linearGradient id="linear-gradient-7" x1="463.04" y1="2115.09" x2="463.04" y2="286.08" xlink:href="#linear-gradient"/><linearGradient id="linear-gradient-8" x1="918.64" y1="215.6" x2="918.64" y2="2056.89" xlink:href="#linear-gradient"/><linearGradient id="linear-gradient-9" x1="463.06" y1="2050.99" x2="463.06" y2="1122.74" xlink:href="#radial-gradient"/><linearGradient id="linear-gradient-10" x1="1040.23" y1="45.35" x2="1040.23" y2="768.15" xlink:href="#radial-gradient"/></defs><g id="Layer_4" data-name="Layer 4"><rect class="cls-1" x="40.3" y="41.71" width="1488.4" height="2240.59" rx="43.34"/></g><g id="final"><path class="cls-2" d="M781.37,805.11H518.65a74.63,74.63,0,0,0-74.54,74.55V1086.9h7V879.66a67.62,67.62,0,0,1,67.54-67.55H781.37Z"/><path class="cls-3" d="M1305.5,1692h7v327a48.56,48.56,0,0,1-48.5,48.5H767.22l4-7H1264a41.55,41.55,0,0,0,41.5-41.5ZM887.59,1874.53H1152.4a48.56,48.56,0,0,0,48.5-48.5V1692h-7V1826a41.55,41.55,0,0,1-41.5,41.5H887.59a41.54,41.54,0,0,1-41.5-41.5V1692h-7V1826A48.55,48.55,0,0,0,887.59,1874.53Z"/><path class="cls-4" d="M222.63,1857.61l-7,3.38V305c0-26.74,23.64-48.5,52.7-48.5H680.69v7H268.33c-25.2,0-45.7,18.62-45.7,41.5ZM1264,257H1066.47l6.37,6H1264a42,42,0,0,1,42,42V474.55l6,5.65V305A48.05,48.05,0,0,0,1264,257Z"/><path class="cls-5" d="M1484,2295H85a56.06,56.06,0,0,1-56-56V85A56.06,56.06,0,0,1,85,29H1484a56.06,56.06,0,0,1,56,56V2239A56.06,56.06,0,0,1,1484,2295ZM85,51A34,34,0,0,0,51,85V2239a34,34,0,0,0,34,34H1484a34,34,0,0,0,34-34V85a34,34,0,0,0-34-34Z"/><path class="cls-6" d="M1447.52,2260h-1326l3.11-8.14a40.63,40.63,0,0,0-52.45-52.45L64,2202.52v-2081l8.14,3.11a40.63,40.63,0,0,0,52.45-52.45L121.48,64h1326l-3.11,8.14a40.65,40.65,0,0,0,52.45,52.45l8.14-3.11v2081l-8.14-3.11a40.63,40.63,0,0,0-52.45,52.45ZM138.18,2248H1430.82a52.65,52.65,0,0,1,62.18-62.18V138.18A52.65,52.65,0,0,1,1430.82,76H138.18A52.69,52.69,0,0,1,76,138.18V2185.82A52.65,52.65,0,0,1,138.18,2248Z"/><path class="cls-7" d="M1011.43,1427.19l-200.8-35.93,1.24-6.89,200.79,35.93Zm256.06-35.93-1.23-6.89-200.79,35.93,1.23,6.89Z"/><polygon class="cls-8" points="1039.07 1292.45 1256.59 1260.3 1255.57 1253.38 1039.07 1285.37 822.56 1253.38 821.53 1260.3 1038.55 1292.37 1039.07 1292.45"/><path class="cls-9" d="M762.64,1915.14l-50.92,97.42,34.73,36.9-41.68,65.63H221.32l-41.68-65.63,34.73-36.9-50.93-97.42,127.13-60.57,2.53-9.76a35.81,35.81,0,0,1,9.95-68.24l26.07-21.73c18.8-59,44.5-244.12,39.09-302.33l-37.48-44.68,47.38-36,.83-11.23c-37.64-25.17-59.89-65.15-59.89-108.26,0-73,63.77-132.49,142.68-133.78v0l2.63,0c78.91,1.29,142.67,60.81,142.67,133.78,0,43.11-22.25,83.09-59.88,108.26l.82,11.23,47.39,36-37.48,44.68c-5.41,58.21,20.29,243.37,39.08,302.33L623,1776.57a35.81,35.81,0,0,1,10,68.24l2.53,9.76ZM690,2023l-224.7,40.68h-4.43l-.62-.11L236.12,2023l-27.49,29.22L234,2092.09H692.13l25.33-39.87Zm41.24-97.37L616,1870.72l-11.92-46h14.86A12.43,12.43,0,0,0,631.27,1812a12.76,12.76,0,0,0-12.74-12.74h-4.17l-37.13-31-1-3c-20.33-59.64-48.12-260.3-40.78-318.92l.42-3.36,26.39-31.46-36.43-27.67-2.59-35.49,6-3.64c34.31-20.63,54.78-55.17,54.78-92.39,0-60.7-54.15-110.16-121-110.8-66.83.64-121,50.1-121,110.8,0,37.22,20.48,71.76,54.78,92.39l6.06,3.64-2.6,35.49-36.42,27.67L390.26,1443l.42,3.36c7.34,58.62-20.45,259.28-40.78,318.92l-1,3-37.14,31h-4.16A12.75,12.75,0,0,0,294.82,1812a12.43,12.43,0,0,0,12.38,12.74h14.86l-11.92,46-115.26,54.91,43.7,83.59,223.51,40.46H464l223.51-40.46Z"/><path class="cls-10" d="M899.45,217,878,243m33.16-2.92M970,218.89c18.69,5.45,38,16.21,57.75,32.17l.5.43,274.3,249.57a185.53,185.53,0,0,1,60.26,130.52l16.27,501.66H1260.33v72.33l25.87,24.35a52.79,52.79,0,0,1,24,96.78l10.5,39.39,109.68,64.45-73.56,122.24,46.53,37.87-54.48,77.83H729.22l-54.48-77.83,46.53-37.87-73.56-122.24,109.68-64.45,10.5-39.39a52.79,52.79,0,0,1,24-96.78l23.32-22L712.72,997.79,810,850.48V674.28L564.74,612.52l-49.35,32-5.93-10.91a47,47,0,0,0-57.8-21.52l-2.19.82-11.43-18,24.55-31.82-52,11.17-2.27-11.46a75.56,75.56,0,0,1,40.55-82.52l-2.39-16.43,7.63-3.65C572.2,403.6,653,373,700.33,367l5.16-131.85L914.08,215.6l-26.17,26.53L727.68,256.26,722.5,388.44,712,389c-40.87,2.12-121.71,31.81-240.33,88.27l2.6,17.88-9,3.11a52.64,52.64,0,0,0-34.74,41.17,51.67,51.67,0,0,0-.68,7.13l89.3-19.18-45.46,58.91a69.88,69.88,0,0,1,49.1,26l37.82-24.51,290.09,73.06,61.17-61.17v-33h23v42.55l-77.13,77.13L833,680.07V857.38L739.15,999.5,839.39,1205,1040,1232.71l-1.91,13.87-200.83-27.75-36,33.88h-4.56a29.77,29.77,0,0,0-11.06,57.41l5.18,2.08,248.28,37.11,244.54-35.65,8.83-3.54a29.77,29.77,0,0,0-11.07-57.41h-4.56l-39.52-37.2V1110.24h118l-15.5-477.91a162.42,162.42,0,0,0-52.75-114.26L1013,268.73c-14.21-11.47-27.95-19.8-41.09-24.93m-17.15-28.2,6.15,24.62,11,3.58L970,218.89M748.63,1553.63l290.43,41.58,290.44-41.58,69.22-115L1301,1381.14l-14.34-53.77-247.53,36.1-1-.16-246.31-36.82-14.57,54.65-97.78,57.45Zm581.43,7-291,41.67-.49-.08-290.5-41.59L705.85,1595l35.34,50.49h595.75l35.34-50.49Z"/><path class="cls-11" d="M326.79,1868.5l127.15,28.77-1.55,6.83-127.15-28.78Zm149.63,28.78,1.59,6.81,122.86-28.77-1.6-6.82ZM461.07,1794.5H465l84.29-19.11-1.55-6.82-83.52,18.93h-2.39l-83.53-18.93-1.54,6.82,83.91,19Zm60-352.38H405v7H521Zm-19.87-82.48-2.59-6.5c-22,8.76-45.95,8.74-71.22-.06l-2.3,6.62a119.17,119.17,0,0,0,39.22,7A98.89,98.89,0,0,0,501.17,1359.64Z"/><path class="cls-12" d="M1263.92,748.74l-8.82-8.14,39.45-42.73,8.81,8.13Zm-303-508.52c5.7,31.13,4.52,65.5-3.53,104.12l-.56,2.66-19.71,11.19,60.47,27.38.92,1.23,236.58,314.62,28.91-32,8.91,8-38.65,42.85-7.36-9.77h0L989.87,395.24l-65.64-29.73-33.34,18.93L885,374l61.24-34.75c9-45,8.34-83.72-2.2-118l-12.36,13.86-3,3.4L827.1,352.38l-46.5,14.23-3.51-11.47,43.29-13.26,90.78-101.8,23.54-26.41,13.84-15.51,3.46,9.35q1.49,4,2.79,8.09Q958.33,227.62,960.94,240.22Z"/></g></svg>