<svg xmlns="http://www.w3.org/2000/svg" xmlns:xlink="http://www.w3.org/1999/xlink" viewBox="0 0 1569 2324"><defs><style>.cls-1{fill:#18181a;}.cls-2{fill:url(#linear-gradient);}.cls-3{fill:url(#linear-gradient-2);}.cls-4{fill:url(#linear-gradient-3);}.cls-5{fill:url(#linear-gradient-4);}.cls-6{fill:url(#linear-gradient-5);}.cls-7{fill:url(#linear-gradient-6);}</style><linearGradient id="linear-gradient" x1="784.5" y1="29" x2="784.5" y2="2295" gradientUnits="userSpaceOnUse"><stop offset="0.01" stop-color="#f0919f"/><stop offset="1" stop-color="#4885f8"/></linearGradient><linearGradient id="linear-gradient-2" x1="784.5" y1="64" x2="784.5" y2="2260" gradientUnits="userSpaceOnUse"><stop offset="0" stop-color="#4885f8"/><stop offset="0.99" stop-color="#f0919f"/></linearGradient><linearGradient id="linear-gradient-3" x1="781.87" y1="241.65" x2="781.87" y2="2052.13" gradientUnits="userSpaceOnUse"><stop offset="0" stop-color="#4885f8"/><stop offset="1" stop-color="#f0919f"/></linearGradient><linearGradient id="linear-gradient-4" x1="1056.82" y1="1798.08" x2="1056.82" y2="1150.62" xlink:href="#linear-gradient-3"/><linearGradient id="linear-gradient-5" x1="311.8" y1="1556.81" x2="1212.03" y2="363.9" xlink:href="#linear-gradient-3"/><linearGradient id="linear-gradient-6" x1="1048.16" y1="2028.03" x2="1048.16" y2="1206.29" gradientUnits="userSpaceOnUse"><stop offset="0.12" stop-color="#4885f8"/><stop offset="0.99" stop-color="#f0919f"/></linearGradient></defs><g id="Layer_4" data-name="Layer 4"><rect class="cls-1" x="40.3" y="41.71" width="1488.4" height="2240.59" rx="43.34"/></g><g id="final"><path class="cls-2" d="M1484,2295H85a56.06,56.06,0,0,1-56-56V85A56.06,56.06,0,0,1,85,29H1484a56.06,56.06,0,0,1,56,56V2239A56.06,56.06,0,0,1,1484,2295ZM85,51A34,34,0,0,0,51,85V2239a34,34,0,0,0,34,34H1484a34,34,0,0,0,34-34V85a34,34,0,0,0-34-34Z"/><path class="cls-3" d="M1447.52,2260h-1326l3.11-8.14a40.63,40.63,0,0,0-52.45-52.45L64,2202.52v-2081l8.14,3.11a40.63,40.63,0,0,0,52.45-52.45L121.48,64h1326l-3.11,8.14a40.65,40.65,0,0,0,52.45,52.45l8.14-3.11v2081l-8.14-3.11a40.63,40.63,0,0,0-52.45,52.45ZM138.18,2248H1430.82a52.65,52.65,0,0,1,62.18-62.18V138.18A52.65,52.65,0,0,1,1430.82,76H138.18A52.69,52.69,0,0,1,76,138.18V2185.82A52.65,52.65,0,0,1,138.18,2248Z"/><path class="cls-4" d="M981.07,1214.46l5.38-6.78a83.45,83.45,0,0,1,77.32,83.11v169.28h-7V1290.79A76.43,76.43,0,0,0,981.07,1214.46ZM522.68,322.17l228,198.43,4.36-5.49L527.27,316.89c-24.63-21.45-32.83-53.77-21.38-84.36s38.85-49.59,71.51-49.59h745.32a76.44,76.44,0,0,1,76.35,76.35V452.64l7,5.55V259.29a83.44,83.44,0,0,0-83.35-83.35H577.4c-35.66,0-65.57,20.75-78.07,54.14S495.78,298.76,522.68,322.17Zm699,608.36a76,76,0,0,1,8.85,106.08l-1.47,1.78a76.36,76.36,0,0,1-107.47,10.49l-5.49-4.51-4.35,5.48,5.4,4.44a82.71,82.71,0,0,0,52.78,19q4.11,0,8.25-.4a82.79,82.79,0,0,0,56.29-30l1.46-1.78a83.35,83.35,0,0,0-9.66-115.81l-9.24-8-4.36,5.49ZM191.73,500.32,523.41,773l4.45-5.4L196.18,494.91a76.4,76.4,0,0,1,97-118L639.06,661.23l4.35-5.48L297.67,371.48A83.4,83.4,0,0,0,191.73,500.32ZM1399.07,687.76v1336a76.44,76.44,0,0,1-76.35,76.35H241a76.44,76.44,0,0,1-76.36-76.35V1483.3l-7-5.55v546A83.45,83.45,0,0,0,241,2107.09h1081.7a83.44,83.44,0,0,0,83.35-83.35V678.94ZM164.66,1259V933.78A76.44,76.44,0,0,1,241,857.43h.53a76.44,76.44,0,0,1,76.35,76.35v132.11l7-8.82V933.78a83.44,83.44,0,0,0-83.35-83.35H241a83.45,83.45,0,0,0-83.36,83.35v334Zm236.6,624a83.44,83.44,0,0,0,83.35-83.35v-62.38l-7-5.56v67.94a76.36,76.36,0,0,1-152.71,0V1610.47l-2.17-1.72H317.9V1799.6A83.45,83.45,0,0,0,401.26,1883Z"/><path class="cls-5" d="M833,1777v14.19a93.82,93.82,0,0,1-47.58-81.63V1461l12-15.12v263.72A82.33,82.33,0,0,0,833,1777ZM1225.8,1305a52.59,52.59,0,1,1,52.58-52.59A52.65,52.65,0,0,1,1225.8,1305Zm0-12a40.59,40.59,0,1,0-40.59-40.59A40.64,40.64,0,0,0,1225.8,1293Zm8.64-142.42h-202.7l-9.53,12h212.23a81.85,81.85,0,0,1,81.76,81.76v465.17a81.62,81.62,0,0,1-50.81,75.7v12.83a93.61,93.61,0,0,0,62.81-88.53V1244.38A93.87,93.87,0,0,0,1234.44,1150.62Z"/><path class="cls-6" d="M1443.8,546.46,1050,231.58a14.88,14.88,0,0,0-20.89,2.4L588,789.79l-58.31-34.28-19.17,24.16,46.63,49L116.07,1384.48a14.87,14.87,0,0,0,2.4,20.89l393,310a14.87,14.87,0,0,0,20.89-2.41L1446.21,567.34A14.86,14.86,0,0,0,1443.8,546.46Zm-288,196.12-64-50.77L1171.07,592l64,50.78Zm-59.1,74.47-64-50.77,51.64-65.07,64,50.77Zm-59.1,74.47-64-50.77,51.64-65.07,64,50.77ZM978.53,966l-64-50.77,51.64-65.07,64,50.77ZM623.92,1412.8,560,1362,611.59,1297l64,50.77Zm-59.1,74.47-64-50.77,51.64-65.07,64,50.77ZM448.7,1633.58l-64-50.77L493.39,1445.9l64,50.77Zm-152-241.2L360.5,1443l-58.71,74L238,1466.35Zm59.1-74.47,63.81,50.64L368,1433.62,304.15,1383Zm59.1-74.47,63.81,50.64-51.64,65.07-63.81-50.64ZM474,1169l63.8,50.64-51.64,65.07L422.36,1234Zm59.1-74.47,63.8,50.64-51.64,65.07-63.8-50.64ZM592.2,1020l63.8,50.64-51.64,65.07-63.8-50.64Zm59.1-74.47,63.81,50.64-51.64,65.07-63.81-50.64Zm59.1-74.47,63.81,50.64L722.57,986.8l-63.81-50.64Zm59.1-74.47,63.81,50.64-51.64,65.07-63.81-50.64Zm59.1-74.47,63.81,50.64-51.64,65.07L777,787.22Zm59.11-74.47,63.8,50.64-51.64,65.07-63.8-50.64Zm59.1-74.47,63.8,50.64L959,688.92l-63.8-50.64Zm59.1-74.47,63.8,50.64-51.64,65.07-63.8-50.64ZM1113,645.85,1048.87,595l104.78-132,64.14,50.91Zm-59.1,74.47-64.14-50.9,51.64-65.07,64.14,50.9Zm-59.1,74.47-64.14-50.9,51.64-65.07,64.14,50.9Zm-59.1,74.47-64.14-50.9,51.64-65.07,64.14,50.9Zm-59.1,74.47-64.14-50.9,51.64-65.07,64.14,50.9ZM817.5,1018.2l-64.14-50.9L805,902.23l64.14,50.9Zm-59.1,74.47-64.14-50.9L745.9,976.7,810,1027.6Zm-59.1,74.47-64.14-50.9,51.64-65.07,64.14,50.9Zm-59.1,74.47-64.14-50.91,51.64-65.06,64.14,50.9Zm-59.1,74.47L517,1265.17l51.64-65.06,64.14,50.9ZM522,1390.55l-64.14-50.91,51.64-65.07,64.14,50.91ZM462.9,1465l-64.14-50.91L450.4,1349,514.54,1400Zm-71.6-41.51,64.14,50.91-80.11,100.93-64.14-50.9Zm769.81-970,48.65-61.31,64.14,50.91-48.65,61.3Zm-9.4-7.46-63.81-50.64,48.66-61.31,63.8,50.64Zm-7.46,9.4L1077.18,540l-63.81-50.64,67.07-84.51ZM683,1338.33l-64-50.77,51.64-65.07,64,50.77Zm59.1-74.47-64-50.77L729.79,1148l64,50.78Zm59.11-74.46-64-50.78,51.64-65.07,64,50.78Zm59.1-74.47-64-50.78L848,999.08l64,50.78Zm59.1-74.47-64-50.78,51.64-65.06,64,50.77Zm259.1-457.86,48.66-61.31,64,50.78-48.66,61.31Zm56.12-70.71,48.65-61.3,64,50.77-48.66,61.31ZM1127.16,326.66,1078.5,388l-64-50.77,48.66-61.31ZM1007.07,346.6l64,50.77L963.29,533.14l-64-50.77ZM891.86,491.77l64,50.77L905.55,605.9l-64-50.77Zm-57.75,72.76,64,50.77L847.8,678.66l-64-50.77Zm-57.74,72.76,64,50.77-50.28,63.36-64-50.77Zm-57.75,72.76,64,50.77-50.29,63.36-64-50.77Zm-57.74,72.76,64,50.77-50.28,63.36-64-50.77Zm-57.75,72.76,64,50.77L616.82,969.7l-64-50.77Zm-57.74,72.76,64,50.77-50.28,63.36-64-50.77Zm-57.75,72.76,64,50.77-50.29,63.36-64-50.77Zm-57.74,72.76,64,50.77L443.59,1188l-64-50.77Zm-57.75,72.76,64,50.77-50.29,63.36-64-50.77Zm-57.74,72.76,64,50.77L328.1,1333.5l-64-50.77Zm-57.74,72.76,64,50.77-50.29,63.36-64-50.77Zm-57.75,72.76,64,50.77-34.3,43.23-64-50.77ZM458.1,1641l64.74-81.57,62.74,49.79-64.94,81.41Zm72.2-91L595,1468.5l63,50-64.94,81.41Zm72.2-91,64.74-81.58,63.2,50.16-64.94,81.41Zm72.2-91,345.27-435,64.32,51L737.93,1418.3Zm352.73-444.45,48.66-61.31,64.5,51.19-48.81,61.19ZM1083.55,853l48.66-61.31L1196.89,843l-48.82,61.18Zm56.12-70.71,48.65-61.31,64.86,51.48-48.81,61.19Zm56.11-70.71,48.66-61.3,65,51.61L1260.67,763Zm56.12-70.71,48.66-61.3,65.21,51.75L1317,692.47Zm56.12-70.7,48.65-61.31,65.4,51.9-48.81,61.18ZM526.44,779l6.2-7.81,47.86,28.13-15.79,19.9Zm515.64-524.29,13.84,11.07L153.07,1403.37l-13.92-11Z"/><path class="cls-7" d="M1206.76,1545.77l-123.13-45.84-8.13-45.86H1045l-8.13,45.86-123.13,45.84c-8.39,53.35-13.86,102.06-16.69,146.62l-24.2-1.17-.36,5.92c-2.93,49.35-2.66,95.28.81,136.52l.5,5.95L898,1837.7c.26,2.77.52,5.53.8,8.26l-23.89,4,.66,5.68c5.39,46.45,15.34,88.41,29.56,124.71l2.31,5.89,21-9.52q5.19,13.39,11.07,25.69L1060.27,2028l120.83-25.67C1226.25,1908,1241.46,1766.36,1206.76,1545.77Zm-151.66-79.7h10.34l5.14,29-10.31-3.83-10.31,3.83ZM1051,1659.62v-75.83h18.58v75.83ZM884.82,1826.7c-2.84-37.46-3.06-78.75-.64-122.92l12.2.59c-2.4,44.58-2.1,84.87.6,121.37ZM914,1970c-12.09-32.46-20.78-69.46-25.87-110.14l12-2c4.93,40.75,13.12,76.33,24.11,107.5Zm286.92-150.17c-2.4,35.1-7.19,67.74-14.25,97a394.39,394.39,0,0,1-21.68,65.41l-104.73,22.24-104.73-22.24a393.77,393.77,0,0,1-21.68-65.41c-7.06-29.26-11.85-61.9-14.25-97-4.93-72.25.06-158.73,14.85-257.24l119.81-44.6v53.78H1039v99.83h15.29v46.7h12v-46.7h15.29v-99.83h-15.29V1518l119.81,44.6C1200.87,1661.12,1205.86,1747.6,1200.93,1819.85Zm-140.66-87.69a21.29,21.29,0,1,0,21.29,21.29A21.31,21.31,0,0,0,1060.27,1732.16Zm0,30.58a9.29,9.29,0,1,1,9.29-9.29A9.3,9.3,0,0,1,1060.27,1762.74Z"/></g></svg>