<svg xmlns="http://www.w3.org/2000/svg" xmlns:xlink="http://www.w3.org/1999/xlink" viewBox="0 0 1569 2324"><defs><style>.cls-1{fill:#18181a;}.cls-2{fill:url(#linear-gradient);}.cls-3{fill:url(#linear-gradient-2);}.cls-4{fill:url(#linear-gradient-3);}.cls-5{fill:url(#linear-gradient-4);}.cls-6{fill:url(#radial-gradient);}.cls-7{fill:url(#linear-gradient-5);}.cls-8{fill:url(#linear-gradient-6);}.cls-9{fill:url(#radial-gradient-2);}.cls-10{fill:url(#linear-gradient-7);}.cls-11{fill:url(#linear-gradient-8);}.cls-12{fill:url(#linear-gradient-9);}.cls-13{fill:url(#linear-gradient-10);}</style><linearGradient id="linear-gradient" x1="784.5" y1="29" x2="784.5" y2="2295" gradientUnits="userSpaceOnUse"><stop offset="0.01" stop-color="#f0919f"/><stop offset="1" stop-color="#4885f8"/></linearGradient><linearGradient id="linear-gradient-2" x1="784.5" y1="64" x2="784.5" y2="2260" gradientUnits="userSpaceOnUse"><stop offset="0" stop-color="#4885f8"/><stop offset="0.99" stop-color="#f0919f"/></linearGradient><linearGradient id="linear-gradient-3" y1="1971.54" x2="784.5" y2="475.51" xlink:href="#linear-gradient-2"/><linearGradient id="linear-gradient-4" y1="1822.41" x2="784.5" y2="947.69" xlink:href="#linear-gradient-2"/><radialGradient id="radial-gradient" cx="786.43" cy="427.4" fy="126.2853085602776" r="874.26" gradientUnits="userSpaceOnUse"><stop offset="0" stop-color="#f0919f"/><stop offset="0.12" stop-color="#e991a3"/><stop offset="0.29" stop-color="#d68fad"/><stop offset="0.49" stop-color="#b78dbd"/><stop offset="0.71" stop-color="#8b8ad4"/><stop offset="0.95" stop-color="#5486f2"/><stop offset="1" stop-color="#4885f8"/></radialGradient><linearGradient id="linear-gradient-5" y1="1407.64" x2="784.5" y2="522.45" xlink:href="#linear-gradient"/><linearGradient id="linear-gradient-6" y1="493.96" x2="784.5" y2="348.72" xlink:href="#linear-gradient-2"/><radialGradient id="radial-gradient-2" cx="783.5" cy="1817.4" r="232.77" gradientUnits="userSpaceOnUse"><stop offset="0.3" stop-color="#4885f8"/><stop offset="0.99" stop-color="#f0919f"/></radialGradient><linearGradient id="linear-gradient-7" y1="2259.89" x2="784.5" y2="1775.71" xlink:href="#linear-gradient-2"/><linearGradient id="linear-gradient-8" x1="785.01" y1="893.71" x2="785.01" y2="580.88" xlink:href="#linear-gradient-2"/><linearGradient id="linear-gradient-9" x1="782.71" y1="1656.19" x2="782.71" y2="1192.56" xlink:href="#linear-gradient"/><linearGradient id="linear-gradient-10" y1="1358.1" x2="784.5" y2="938.03" xlink:href="#linear-gradient-2"/></defs><g id="Layer_4" data-name="Layer 4"><rect class="cls-1" x="40.3" y="41.71" width="1488.4" height="2240.59" rx="43.34"/></g><g id="final"><path class="cls-2" d="M1484,2295H85a56.06,56.06,0,0,1-56-56V85A56.06,56.06,0,0,1,85,29H1484a56.06,56.06,0,0,1,56,56V2239A56.06,56.06,0,0,1,1484,2295ZM85,51A34,34,0,0,0,51,85V2239a34,34,0,0,0,34,34H1484a34,34,0,0,0,34-34V85a34,34,0,0,0-34-34Z"/><path class="cls-3" d="M1447.52,2260h-1326l3.11-8.14a40.63,40.63,0,0,0-52.45-52.45L64,2202.52v-2081l8.14,3.11a40.63,40.63,0,0,0,52.45-52.45L121.48,64h1326l-3.11,8.14a40.65,40.65,0,0,0,52.45,52.45l8.14-3.11v2081l-8.14-3.11a40.63,40.63,0,0,0-52.45,52.45ZM138.18,2248H1430.82a52.65,52.65,0,0,1,62.18-62.18V138.18A52.65,52.65,0,0,1,1430.82,76H138.18A52.69,52.69,0,0,1,76,138.18V2185.82A52.65,52.65,0,0,1,138.18,2248Z"/><path class="cls-4" d="M1335.59,1527v6h-7v-6Zm-7,480.46h-460l-2.08,7h469.12V1533h-7ZM65.66,1167.21,233.05,1533h.36v481.46H702.53l-2.08-7h-460V1533H764.33l14.72-12H240.76L84.34,1179.21H753.57v-12Zm749.57,0v12h669.43L1328.24,1521H869l-10.86,12h470.43v-6h7v6h.36l167.39-365.75Z"/><path class="cls-5" d="M874.13,1818.3l-4.64-22.53c-7.21,1.49-14.57,2.8-21.86,3.9l3.43,22.74C858.75,1821.25,866.51,1819.87,874.13,1818.3Zm45.31-11.87-7-21.9c-7,2.24-14.19,4.32-21.33,6.19l5.83,22.25C904.47,1811,912,1808.8,919.44,1806.43Zm43.87-16.65-9.3-21c-6.76,3-13.68,5.83-20.57,8.45l8.16,21.5C948.88,1795.93,956.18,1792.93,963.31,1789.78Zm41.82-21.22-11.48-19.93c-6.4,3.68-13,7.24-19.55,10.58l10.4,20.51C991.45,1776.2,998.38,1772.44,1005.13,1768.56Zm39.32-25.52-13.53-18.6c-6,4.33-12.12,8.57-18.31,12.59l12.52,19.29C1031.65,1752.08,1038.15,1747.62,1044.45,1743Zm36.39-29.5-15.4-17.08c-5.48,4.94-11.16,9.8-16.89,14.44l14.48,17.87C1069.08,1723.87,1075.07,1718.75,1080.84,1713.54Zm33.08-33.15L1096.81,1665c-4.93,5.48-10.07,10.91-15.28,16.13l16.29,16.25C1103.31,1691.89,1108.73,1686.17,1113.92,1680.39Zm29.4-36.44-18.63-13.48c-4.32,6-8.85,11.9-13.49,17.64l17.9,14.44C1134,1656.5,1138.77,1650.24,1143.32,1644Zm25.4-39.31-20-11.44c-3.66,6.38-7.54,12.76-11.54,19l19.32,12.48C1160.76,1618.1,1164.86,1611.37,1168.72,1604.64Zm21.09-41.77-21.06-9.26c-3,6.74-6.15,13.49-9.46,20.06l20.53,10.36C1183.32,1577.1,1186.68,1570,1189.81,1562.87Zm16.53-43.74-21.92-7c-2.23,7-4.68,14-7.28,20.93l21.51,8.13C1201.4,1534,1204,1526.53,1206.34,1519.13Zm11.8-45.33-22.53-4.6c-1.48,7.22-3.17,14.5-5,21.63l22.26,5.79C1214.8,1489.1,1216.58,1481.42,1218.14,1473.8Zm6.92-46.32-22.89-2.19c-.71,7.34-1.61,14.76-2.7,22l22.75,3.4C1223.36,1443,1224.32,1435.22,1225.06,1427.48Zm2-42.69c0-1.37,0-2.74,0-4.1l-23,.21c0,1.3,0,2.59,0,3.89,0,6.09-.14,12.26-.4,18.34l23,1C1227,1397.71,1227.1,1391.21,1227.1,1384.79Zm-.85-27.52c-.47-7.77-1.16-15.62-2-23.34l-22.85,2.61c.84,7.33,1.49,14.77,2,22.14Zm-5.33-46.54c-1.29-7.68-2.81-15.42-4.5-23l-22.45,5c1.61,7.19,3,14.52,4.27,21.8ZM1210.69,1265c-2.1-7.5-4.43-15-6.93-22.4L1182,1250c2.36,7,4.57,14.11,6.56,21.22Zm-15-44.39c-2.88-7.22-6-14.46-9.27-21.52l-20.87,9.66c3.09,6.69,6,13.55,8.79,20.4Zm-19.77-42.69c-1.83-3.47-3.74-7-5.66-10.36l-20,11.3c1.82,3.24,3.63,6.54,5.37,9.82Zm-757.42,1.61-20.05-11.27c-1.92,3.41-3.82,6.9-5.65,10.37l20.35,10.73C414.83,1186.07,416.63,1182.76,418.45,1179.53ZM721.2,1799.64c-7.29-1.1-14.64-2.41-21.84-3.9l-4.64,22.53c7.6,1.57,15.35,3,23,4.11Zm-43.44-9c-7.13-1.87-14.29-4-21.3-6.2l-7,21.91c7.39,2.37,15,4.57,22.48,6.54Zm-42.24-13.52c-6.86-2.6-13.75-5.43-20.49-8.41l-9.3,21c7.11,3.15,14.39,6.13,21.62,8.88ZM595,1759.27c-6.56-3.33-13.12-6.88-19.49-10.55l-11.47,19.94c6.72,3.87,13.64,7.61,20.56,11.12Zm-38.41-22.11c-6.17-4-12.32-8.22-18.28-12.54l-13.51,18.61c6.29,4.56,12.77,9,19.29,13.23Zm-35.89-26c-5.72-4.63-11.39-9.48-16.87-14.41l-15.39,17.09c5.78,5.2,11.76,10.31,17.79,15.2Zm-33-29.69c-5.21-5.21-10.35-10.63-15.28-16.1l-17.1,15.38c5.2,5.78,10.62,11.49,16.11,17Zm-29.69-33c-4.63-5.74-9.18-11.67-13.5-17.63l-18.62,13.5c4.56,6.29,9.35,12.54,14.24,18.59ZM432,1612.5c-4-6.19-7.91-12.57-11.57-19L400.49,1605c3.87,6.74,8,13.47,12.21,20ZM409.88,1574c-3.33-6.59-6.53-13.34-9.5-20.08l-21,9.28c3.13,7.11,6.5,14.24,10,21.18ZM392,1533.36c-2.61-6.9-5.07-14-7.31-21l-21.91,7c2.36,7.42,5,14.87,7.71,22.14Zm-13.48-42.3c-1.86-7.12-3.55-14.39-5-21.61l-22.53,4.62c1.55,7.61,3.34,15.29,5.3,22.8Zm-8.91-43.45c-1.09-7.28-2-14.69-2.71-22L344,1427.8c.75,7.73,1.71,15.55,2.86,23.22Zm-4.26-44.16c-.27-6.18-.41-12.46-.41-18.66,0-1.18,0-2.36,0-3.54l-23-.18c0,1.24,0,2.48,0,3.72,0,6.53.15,13.15.43,19.67ZM367.6,1337l-22.85-2.59c-.88,7.7-1.56,15.55-2,23.31l23,1.39C366.12,1351.71,366.77,1344.27,367.6,1337Zm7.33-43.76-22.45-5c-1.69,7.58-3.2,15.31-4.48,23l22.68,3.8C371.9,1307.72,373.33,1300.39,374.93,1293.2Zm11.93-42.73-21.79-7.35c-2.49,7.36-4.81,14.89-6.9,22.37l22.15,6.19C382.3,1264.59,384.5,1257.45,386.86,1250.47Zm16.41-41.21-20.89-9.64c-3.25,7.06-6.36,14.3-9.23,21.52l21.37,8.51C397.24,1222.81,400.19,1216,403.27,1209.26ZM784.5,959.69A426.11,426.11,0,0,1,1155,1176.16l10.45-5.9a437.18,437.18,0,0,0-762.23.7l10.46,5.88A426,426,0,0,1,784.5,959.69Z"/><path class="cls-6" d="M74.61,631.31l-9.36-7.51.85-1.06,9.35,7.53ZM303.07,421.75l-6.62-10c-85.56,56.53-163.06,127.52-230.35,211l9.35,7.53C142,547.75,218.54,477.6,303.07,421.75ZM670.5,270.57C561.86,284.75,457,319.52,358.74,374l5.81,10.5C461,331,563.92,296.79,670.5,282.68m0,0V270.57M330.7,383a14.8,14.8,0,1,0,14.8,14.79A14.81,14.81,0,0,0,330.7,383m0-7a21.8,21.8,0,1,1-21.79,21.79A21.8,21.8,0,0,1,330.7,376Zm1173,248.83c-67.68-84.39-145.75-156.09-232-213.1l-6.62,10c85.26,56.32,162.4,127.18,229.3,210.6ZM898.09,282.74c106.4,14.15,209.12,48.36,305.45,101.73l5.81-10.5c-98.12-54.37-202.8-89.11-311.26-103.33ZM1237.39,383a14.8,14.8,0,1,0,14.79,14.79A14.81,14.81,0,0,0,1237.39,383m0-7a21.8,21.8,0,1,1-21.79,21.79A21.8,21.8,0,0,1,1237.39,376Zm-368-51.21H699.65V155.1H784.5v-12H687.65V336.8h193.7V240h-12ZM829.92,143.1v12h30.94L790.5,225.46V194.53h-12V246h51.42V234H799l70.37-70.36v30.94h12V143.1Z"/><path class="cls-7" d="M784.5,1407.64a441.19,441.19,0,1,1,172.28-34.78A439.83,439.83,0,0,1,784.5,1407.64Zm0-862.19c-231.37,0-419.6,188.23-419.6,419.6s188.23,419.59,419.6,419.59,419.6-188.23,419.6-419.59S1015.87,545.45,784.5,545.45Z"/><path class="cls-8" d="M788,494h-7V471h7Zm0-46h-7V425h7Zm0-46h-7V379h7Zm0-46h-7v-7.24h7Z"/><path class="cls-9" d="M735.53,1811.4v12h-231v-12Zm376.63,6a18.54,18.54,0,1,1-18.54-18.54A18.56,18.56,0,0,1,1112.16,1817.4Zm-7,0a11.54,11.54,0,1,0-11.54,11.54A11.55,11.55,0,0,0,1105.16,1817.4Zm-613.24,0a18.54,18.54,0,1,1-18.54-18.54A18.55,18.55,0,0,1,491.92,1817.4Zm-7,0a11.54,11.54,0,1,0-11.54,11.54A11.55,11.55,0,0,0,484.92,1817.4Zm349.05,6H1062.5v-12H834Z"/><path class="cls-10" d="M872.72,1921.16l-3.31-1.05c-26.33-8.37-59.08-36.22-70.61-65.94h22.47v-73.54H747.73v73.54H770.2c-11.53,29.72-44.28,57.57-70.61,65.94l-3.31,1.05,43.31,141.25H723V2106H846v-43.58H829.41Zm-113-128.53h49.54v49.54H759.73Zm-54.75,133c28-10.31,61.58-40.09,72.67-71.48H781v81.68h7v-81.68h3.35c11.09,31.39,44.65,61.17,72.67,71.48l-41.93,136.76H746.91Zm129,148.76V2094H735v-19.58Zm-49.49-92.18a15.51,15.51,0,1,0-15.5-15.51A15.52,15.52,0,0,0,784.5,1982.23Zm0-24a8.51,8.51,0,1,1-8.5,8.5A8.51,8.51,0,0,1,784.5,1958.22Z"/><path class="cls-11" d="M826.17,731.37,801.76,707l36-36,24.4,24.41ZM811.66,707l14.51,14.51,26.07-26.07-14.5-14.51Zm-15,15-5-5L681.19,827.54l4.95,5Zm19.75,19.16-5-4.95L700.65,847l5,5Zm-21.94-63.6a13.91,13.91,0,1,1,9.84-4.07h0A13.85,13.85,0,0,1,794.43,677.57Zm0-20.82a6.91,6.91,0,1,0,4.89,11.8h0a6.91,6.91,0,0,0-4.89-11.8Zm75,95.86a13.9,13.9,0,1,1,9.84-4.07h0A13.85,13.85,0,0,1,869.47,752.61Zm0-20.82a6.91,6.91,0,1,0,4.89,11.8h0a6.91,6.91,0,0,0-4.89-11.8Zm5.45-59.52a13.91,13.91,0,1,1,9.84-4.07h0A13.83,13.83,0,0,1,874.92,672.27Zm0-20.81a6.83,6.83,0,0,0-4.88,2,6.91,6.91,0,0,0,9.77,9.77h0a6.91,6.91,0,0,0-4.89-11.79Z"/><path class="cls-12" d="M767,1616.48l-35.56-35.56L867,1463.39l17.5,17.49Zm-25.29-35.2,24.93,24.93,108.33-125-8.28-8.27Zm-34.21,74.91a47.49,47.49,0,0,1-19.61-4.4l-6.93-3.13,6.88-3.23c4.81-2.26,8.4-8.07,11-17.76h0c.3-1.14.59-2.86.88-4.67a48.71,48.71,0,0,1,1.64-7.59,24.38,24.38,0,0,1,40.13-9,23.77,23.77,0,0,1,6.94,17.37,24.79,24.79,0,0,1-7.28,17.26C731.29,1651.06,719.61,1656.19,707.46,1656.19Zm-10.91-8.61c14.22,4.22,28.08.27,39.56-11.42a17.86,17.86,0,0,0,5.25-12.44,16.82,16.82,0,0,0-4.89-12.31,17.45,17.45,0,0,0-28.58,6.35,44.36,44.36,0,0,0-1.33,6.38c-.33,2-.63,3.85-1,5.32h0C703.38,1637.6,700.41,1643.6,696.55,1647.58Z"/><path class="cls-13" d="M819,1240.19H750l20.45-23V1105.33H738.58L714.91,1129v-48.63H854.09V1129l-23.67-23.67H798.59V1217.2Zm-53.48-7h37.88l-11.85-13.32V1098.33h41.73l13.77,13.77v-24.73H721.91v24.73l13.77-13.77h41.73v121.54Z"/></g></svg>