<svg xmlns="http://www.w3.org/2000/svg" xmlns:xlink="http://www.w3.org/1999/xlink" viewBox="0 0 1569 2324"><defs><style>.cls-1{fill:#18181a;}.cls-2{fill:url(#linear-gradient);}.cls-3{fill:url(#linear-gradient-2);}.cls-4{fill:url(#linear-gradient-3);}.cls-5{fill:url(#linear-gradient-4);}.cls-6{fill:url(#radial-gradient);}.cls-7{fill:url(#linear-gradient-5);}.cls-8{fill:url(#linear-gradient-6);}.cls-9{fill:url(#linear-gradient-7);}.cls-10{fill:url(#linear-gradient-8);}.cls-11{fill:url(#linear-gradient-9);}.cls-12{fill:url(#linear-gradient-10);}.cls-13{fill:url(#linear-gradient-11);}.cls-14{fill:url(#linear-gradient-12);}.cls-15{fill:url(#linear-gradient-13);}.cls-16{fill:url(#linear-gradient-14);}.cls-17{fill:url(#linear-gradient-15);}.cls-18{fill:url(#linear-gradient-16);}</style><linearGradient id="linear-gradient" x1="876.2" y1="2100.1" x2="1427.8" y2="2100.1" gradientUnits="userSpaceOnUse"><stop offset="0" stop-color="#4885f8"/><stop offset="0.99" stop-color="#f0919f"/></linearGradient><linearGradient id="linear-gradient-2" x1="784.5" y1="2097.56" x2="784.5" y2="258.48" xlink:href="#linear-gradient"/><linearGradient id="linear-gradient-3" x1="784.5" y1="1914.88" x2="784.5" y2="309.25" gradientUnits="userSpaceOnUse"><stop offset="0.01" stop-color="#f0919f"/><stop offset="1" stop-color="#4885f8"/></linearGradient><linearGradient id="linear-gradient-4" x1="786.86" y1="331.06" x2="786.86" y2="83.25" xlink:href="#linear-gradient"/><radialGradient id="radial-gradient" cx="786.86" cy="270.29" r="321.68" xlink:href="#linear-gradient-3"/><linearGradient id="linear-gradient-5" x1="784.5" y1="29" x2="784.5" y2="2295" xlink:href="#linear-gradient-3"/><linearGradient id="linear-gradient-6" x1="784.5" y1="64" x2="784.5" y2="2260" xlink:href="#linear-gradient"/><linearGradient id="linear-gradient-7" x1="730.18" y1="1717.36" x2="1636.36" y2="1717.36" xlink:href="#linear-gradient"/><linearGradient id="linear-gradient-8" x1="883.39" y1="1728.28" x2="1561.68" y2="1728.28" xlink:href="#linear-gradient-3"/><linearGradient id="linear-gradient-9" x1="916.45" y1="1233.43" x2="1731.13" y2="1233.43" xlink:href="#linear-gradient-3"/><linearGradient id="linear-gradient-10" x1="-8.72" y1="746.89" x2="1017.71" y2="746.89" xlink:href="#linear-gradient-3"/><linearGradient id="linear-gradient-11" x1="390.24" y1="716.24" x2="1645.45" y2="716.24" xlink:href="#linear-gradient"/><linearGradient id="linear-gradient-12" x1="302.87" y1="1453.23" x2="927.79" y2="1453.23" xlink:href="#linear-gradient"/><linearGradient id="linear-gradient-13" x1="227.81" y1="1279.07" x2="616.47" y2="1279.07" xlink:href="#linear-gradient-3"/><linearGradient id="linear-gradient-14" x1="872.96" y1="680.22" x2="1802.5" y2="680.22" xlink:href="#linear-gradient-3"/><linearGradient id="linear-gradient-15" x1="836.24" y1="1228.63" x2="836.24" y2="854.97" xlink:href="#linear-gradient"/><linearGradient id="linear-gradient-16" x1="719.05" y1="1254.5" x2="1613.1" y2="1254.5" xlink:href="#linear-gradient"/></defs><g id="Layer_4" data-name="Layer 4"><rect class="cls-1" x="40.3" y="41.71" width="1488.4" height="2240.59" rx="43.34"/></g><g id="final"><rect class="cls-2" x="876.2" y="2094.1" width="551.61" height="12"/><path class="cls-3" d="M1427.8,717.16v1207.5a41,41,0,0,1-41,41H725c-7.18,59.95-12.72,99.8-76.79,130.8l-2.27,1.1H143.27v-22H640.9c50.46-25.18,55.29-54.21,62-109.9H182.2a41,41,0,0,1-41-41V269.48h22V1924.66a19,19,0,0,0,19,19H1386.8a19,19,0,0,0,19-19V717.16ZM485.88,258.48h-94v22h94Zm930.92,0H1074.67v22H1416.8Z"/><path class="cls-4" d="M1336.81,1914.88H202.19v-7H1336.81a26.53,26.53,0,0,0,26.5-26.5V640.5h7V1881.38A33.54,33.54,0,0,1,1336.81,1914.88ZM205.69,342.75a26.53,26.53,0,0,1,26.5-26.5H375.48v-7H232.19a33.54,33.54,0,0,0-33.5,33.5V428.9h7Z"/><path class="cls-5" d="M1040.73,331.06H533V209.51h507.74ZM545,319.06h483.74V221.51H545Z"/><path class="cls-6" d="M978.12,281.79H842.05v-23H978.12Zm-235.22-23H595.6v23H742.9Zm49.58-8.43a19.93,19.93,0,1,0,19.93,19.93,20,20,0,0,0-19.93-19.93m0-7a26.93,26.93,0,1,1-26.93,26.93,26.93,26.93,0,0,1,26.93-26.93Z"/><path class="cls-7" d="M1484,2295H85a56.06,56.06,0,0,1-56-56V85A56.06,56.06,0,0,1,85,29H1484a56.06,56.06,0,0,1,56,56V2239A56.06,56.06,0,0,1,1484,2295ZM85,51A34,34,0,0,0,51,85V2239a34,34,0,0,0,34,34H1484a34,34,0,0,0,34-34V85a34,34,0,0,0-34-34Z"/><path class="cls-8" d="M1447.52,2260h-1326l3.11-8.14a40.63,40.63,0,0,0-52.45-52.45L64,2202.52v-2081l8.14,3.11a40.63,40.63,0,0,0,52.45-52.45L121.48,64h1326l-3.11,8.14a40.65,40.65,0,0,0,52.45,52.45l8.14-3.11v2081l-8.14-3.11a40.63,40.63,0,0,0-52.45,52.45ZM138.18,2248H1430.82a52.65,52.65,0,0,1,62.18-62.18V138.18A52.65,52.65,0,0,1,1430.82,76H138.18A52.69,52.69,0,0,1,76,138.18V2185.82A52.65,52.65,0,0,1,138.18,2248Z"/><path class="cls-9" d="M1282.54,1815.48H834.08V1619.25h448.46Zm-426.46-22h404.46V1641.25H856.08Zm301-131.18a8.41,8.41,0,1,1-8.41,8.41,8.41,8.41,0,0,1,8.41-8.41m0-7a15.41,15.41,0,1,0,15.41,15.41,15.42,15.42,0,0,0-15.41-15.41Zm37,7a8.41,8.41,0,1,1-8.4,8.41,8.4,8.4,0,0,1,8.4-8.41m0-7a15.41,15.41,0,1,0,15.41,15.41,15.42,15.42,0,0,0-15.41-15.41Zm37,7a8.41,8.41,0,1,1-8.41,8.41,8.41,8.41,0,0,1,8.41-8.41m0-7a15.41,15.41,0,1,0,15.41,15.41,15.42,15.42,0,0,0-15.41-15.41Z"/><path class="cls-10" d="M1071.9,1711.17H883.39v-12H1071.9Zm-31.15,34.22H978.26v12h62.49Zm97.61,0h-62.49v12h62.49Z"/><path class="cls-11" d="M1216,1102.78H916.45v-12H1216Zm-193.76,30.46H916.45v12h105.77Zm44,230.84H960.45v12h105.76Zm62.54-189.15H916.45v12h212.3Zm64.08,119.66H916.45v12h276.38Z"/><polygon class="cls-12" points="694.32 1051.26 312.32 1051.26 312.32 442.52 1034.73 442.52 1034.73 464.52 334.32 464.52 334.32 1029.26 694.32 1029.26 694.32 1051.26"/><path class="cls-13" d="M463.45,515H391.84V503h71.61Zm33.27,13.2H391.84v12H496.72Zm-1.6,151.47H390.24v12H495.12Zm338.19-95.81H439.22v7H833.31ZM753,612.6H439.22v7H753ZM735.67,722.5H421.9v7H735.67ZM679,922.52H421.9v7H679ZM496.72,762.85H421.9v7h74.82Zm85.42,76.94H390.24v7h191.9Zm0,41.37H390.24v7h191.9Z"/><path class="cls-14" d="M693,1335.16H600.72v-22H693Zm52.11,20.8-67.6,328.28H334.06l13.67-66.34-12.27-59.59h-17l7.38-46.85-22.94-111.38h40.48l28-177.86H577.48L556.42,1356h72.35v22H419.6l-58.54,284.28h298.5L718.1,1378h-48v-22Zm-414,121.79,10.34-65.67H317.59Zm1.35,68.56h30L401.66,1356H544.27l19.18-121.74H381.62Zm21.38,41.84,6.15-29.84H347.71Z"/><polygon class="cls-15" points="318.37 1374.84 311.45 1373.75 341.44 1183.31 538.41 1183.31 538.41 1190.31 347.43 1190.31 318.37 1374.84"/><path class="cls-16" d="M1059.49,746.25a66,66,0,1,1,66-66A66.1,66.1,0,0,1,1059.49,746.25Zm0-120.06a54,54,0,1,0,54,54A54.09,54.09,0,0,0,1059.49,626.19Zm-27.11,243.1a18.86,18.86,0,0,1-3.25-.28,190.23,190.23,0,0,1-38.38-11.07A18.73,18.73,0,0,1,979,840.51c0-2.59-2.1-6.59-6.72-9.26-4.46-2.57-8.81-2.51-11.15-1.32a19,19,0,0,1-20.77-2.18,192.67,192.67,0,0,1-28.49-29.26,19,19,0,0,1-2-20c1.14-2.34,1.16-6.66-1.38-11.06s-6.23-6.49-8.82-6.71a19.07,19.07,0,0,1-16.18-12.13,172.93,172.93,0,0,1-10.32-40.22,18.86,18.86,0,0,1,7.73-18c2.11-1.51,4.23-5.23,4.23-10.18,0-5.24-2.26-8.74-4.19-10.15a18.81,18.81,0,0,1-7.62-18,184.21,184.21,0,0,1,10.45-40.34,18.77,18.77,0,0,1,15.89-12c2.6-.25,6.34-2.43,8.83-6.74s2.5-8.71,1.35-11.07a19,19,0,0,1,2.1-19.91,193.19,193.19,0,0,1,28.56-29.34,19,19,0,0,1,20.66-2.24c2.37,1.2,6.74,1.26,11.15-1.29,4.56-2.63,6.65-6.59,6.67-9.16a18.87,18.87,0,0,1,11.71-17.48,190.11,190.11,0,0,1,38.47-11.1,18.94,18.94,0,0,1,19.86,9.65c1.25,2.28,5.07,4.74,10.5,4.74s9.25-2.46,10.51-4.74a19,19,0,0,1,19.86-9.65,190.11,190.11,0,0,1,38.47,11.1A18.9,18.9,0,0,1,1140,520c0,2.57,2.11,6.53,6.66,9.16s8.78,2.49,11.16,1.29a19,19,0,0,1,20.65,2.24,193.26,193.26,0,0,1,28.57,29.34,19,19,0,0,1,2.1,19.91c-1.15,2.36-1.18,6.7,1.34,11.07s6.23,6.49,8.84,6.74a18.76,18.76,0,0,1,15.88,12,184.21,184.21,0,0,1,10.45,40.34,18.79,18.79,0,0,1-7.61,18c-1.94,1.41-4.19,4.91-4.19,10.15,0,4.95,2.12,8.67,4.22,10.18a18.84,18.84,0,0,1,7.73,18,172.8,172.8,0,0,1-10.32,40.22,19,19,0,0,1-16.18,12.13c-2.59.22-6.32,2.38-8.82,6.71s-2.52,8.72-1.37,11.06a19,19,0,0,1-2.05,20,193.13,193.13,0,0,1-28.49,29.26,19,19,0,0,1-20.77,2.18c-2.34-1.19-6.7-1.25-11.15,1.32-4.62,2.67-6.73,6.67-6.73,9.26a18.73,18.73,0,0,1-11.72,17.43A190.61,190.61,0,0,1,1089.86,869a18.93,18.93,0,0,1-19.86-9.65c-1.26-2.28-5.08-4.74-10.51-4.74s-9.25,2.46-10.5,4.74A19,19,0,0,1,1032.38,869.29Zm-31.44-31a169,169,0,0,0,29.87,8.63c5.77-8.77,16.78-14.33,28.68-14.33s22.91,5.56,28.69,14.33a169.24,169.24,0,0,0,29.87-8.63c.82-10.36,7.42-20.22,17.64-26.12,9.74-5.62,21.21-6.59,30.41-2.67a171.38,171.38,0,0,0,22.51-23.13c-3.7-9.11-2.66-20.41,2.86-30s14.44-15.94,24.15-17.41a150.62,150.62,0,0,0,8.18-31.88c-7.49-6.15-11.91-16-11.91-26.91s4.36-20.62,11.76-26.78a159.23,159.23,0,0,0-8.26-32c-9.62-1.56-18.46-7.95-23.92-17.4s-6.53-20.76-2.88-29.88A170.88,170.88,0,0,0,1166,550.93c-9.21,3.86-20.64,2.88-30.3-2.7-10.17-5.87-16.76-15.73-17.58-26.08a168.46,168.46,0,0,0-29.94-8.65c-5.77,8.77-16.78,14.33-28.69,14.33s-22.91-5.56-28.69-14.33a168.94,168.94,0,0,0-29.94,8.65c-.81,10.35-7.4,20.21-17.58,26.08-9.66,5.58-21.08,6.56-30.29,2.7a171,171,0,0,0-22.6,23.22c3.66,9.12,2.61,20.38-2.87,29.88s-14.3,15.84-23.93,17.4a159.89,159.89,0,0,0-8.25,32c7.39,6.15,11.76,16,11.76,26.78s-4.42,20.76-11.91,26.91A150.17,150.17,0,0,0,903.37,739c9.71,1.47,18.63,7.86,24.15,17.41s6.56,20.86,2.86,30a171.9,171.9,0,0,0,22.5,23.13c9.21-3.92,20.68-2.95,30.42,2.67C993.51,818.1,1000.11,828,1000.94,838.32Z"/><path class="cls-17" d="M813.51,855l-87.92,87.92v285.74H816v-12h-78.4V951.37H822V867H934.88V964.8h12V855Zm-67.43,84.4L810,875.45v63.92Z"/><path class="cls-18" d="M1282.54,1529H834.08V980h448.46Zm-426.46-22h404.46V1002H856.08Zm297.44-482a8.41,8.41,0,1,1-8.4,8.4,8.4,8.4,0,0,1,8.4-8.4m0-7a15.41,15.41,0,1,0,15.41,15.4,15.42,15.42,0,0,0-15.41-15.4Zm37,7a8.41,8.41,0,1,1-8.41,8.4,8.41,8.41,0,0,1,8.41-8.4m0-7a15.41,15.41,0,1,0,15.41,15.4,15.42,15.42,0,0,0-15.41-15.4Zm37,7a8.41,8.41,0,1,1-8.4,8.4,8.4,8.4,0,0,1,8.4-8.4m0-7a15.41,15.41,0,1,0,15.41,15.4,15.42,15.42,0,0,0-15.41-15.4Z"/></g></svg>