<svg xmlns="http://www.w3.org/2000/svg" xmlns:xlink="http://www.w3.org/1999/xlink" viewBox="0 0 1569 2324"><defs><style>.cls-1{fill:#18181a;}.cls-2{fill:url(#linear-gradient);}.cls-3{fill:url(#linear-gradient-2);}.cls-4{fill:url(#linear-gradient-3);}.cls-5{fill:url(#linear-gradient-4);}.cls-6{fill:url(#linear-gradient-5);}.cls-7{fill:url(#linear-gradient-6);}.cls-8{fill:url(#linear-gradient-7);}.cls-9{fill:url(#linear-gradient-8);}.cls-10{fill:url(#linear-gradient-9);}.cls-11{fill:url(#linear-gradient-10);}.cls-12{fill:url(#linear-gradient-11);}.cls-13{fill:url(#linear-gradient-12);}.cls-14{fill:url(#linear-gradient-13);}.cls-15{fill:url(#linear-gradient-14);}.cls-16{fill:url(#linear-gradient-15);}.cls-17{fill:url(#linear-gradient-16);}.cls-18{fill:url(#linear-gradient-17);}.cls-19{fill:url(#linear-gradient-18);}.cls-20{fill:url(#linear-gradient-19);}.cls-21{fill:url(#linear-gradient-20);}</style><linearGradient id="linear-gradient" x1="143.75" y1="2072.1" x2="320.74" y2="2072.1" gradientTransform="translate(1533.22 442.68) rotate(45)" gradientUnits="userSpaceOnUse"><stop offset="0.01" stop-color="#f0919f"/><stop offset="1" stop-color="#4885f8"/></linearGradient><linearGradient id="linear-gradient-2" x1="330.46" y1="2013.05" x2="1240" y2="2013.05" gradientTransform="matrix(1, 0, 0, 1, 0, 0)" xlink:href="#linear-gradient"/><linearGradient id="linear-gradient-3" x1="330.12" y1="2073.9" x2="1235.8" y2="2073.9" gradientTransform="matrix(1, 0, 0, 1, 0, 0)" xlink:href="#linear-gradient"/><linearGradient id="linear-gradient-4" x1="892.38" y1="1390.27" x2="1177.58" y2="1390.27" gradientUnits="userSpaceOnUse"><stop offset="0" stop-color="#4885f8"/><stop offset="0.99" stop-color="#f0919f"/></linearGradient><linearGradient id="linear-gradient-5" x1="960.16" y1="1165.84" x2="1649.34" y2="1165.84" gradientTransform="matrix(1, 0, 0, 1, 0, 0)" xlink:href="#linear-gradient"/><linearGradient id="linear-gradient-6" x1="768.33" y1="324.83" x2="1381.23" y2="324.83" gradientTransform="matrix(1, 0, 0, 1, 0, 0)" xlink:href="#linear-gradient"/><linearGradient id="linear-gradient-7" x1="-47.48" y1="836.69" x2="388.31" y2="836.69" xlink:href="#linear-gradient-4"/><linearGradient id="linear-gradient-8" x1="879.2" y1="1256.45" x2="879.2" y2="129.29" xlink:href="#linear-gradient-4"/><linearGradient id="linear-gradient-9" x1="1367.56" y1="2073.9" x2="1367.56" y2="269.48" xlink:href="#linear-gradient-4"/><linearGradient id="linear-gradient-10" x1="784.5" y1="29" x2="784.5" y2="2295" gradientTransform="matrix(1, 0, 0, 1, 0, 0)" xlink:href="#linear-gradient"/><linearGradient id="linear-gradient-11" x1="784.5" y1="64" x2="784.5" y2="2260" xlink:href="#linear-gradient-4"/><linearGradient id="linear-gradient-12" x1="1125.86" y1="1040.59" x2="1239.39" y2="1154.45" xlink:href="#linear-gradient-4"/><linearGradient id="linear-gradient-13" x1="313.46" y1="1763.5" x2="1235.54" y2="1763.5" gradientTransform="matrix(1, 0, 0, 1, 0, 0)" xlink:href="#linear-gradient"/><linearGradient id="linear-gradient-14" x1="130.9" y1="1128.84" x2="1333.63" y2="1128.84" xlink:href="#linear-gradient-4"/><linearGradient id="linear-gradient-15" x1="185.42" y1="213.72" x2="969.59" y2="927.32" gradientUnits="userSpaceOnUse"><stop offset="0" stop-color="#f0919f"/><stop offset="1" stop-color="#4885f8"/></linearGradient><linearGradient id="linear-gradient-16" x1="503.9" y1="1756.22" x2="704.61" y2="1756.22" gradientTransform="matrix(1, 0, 0, 1, 0, 0)" xlink:href="#linear-gradient"/><linearGradient id="linear-gradient-17" x1="469.85" y1="1627.69" x2="469.85" y2="1903.54" gradientTransform="matrix(1, 0, 0, 1, 0, 0)" xlink:href="#linear-gradient"/><linearGradient id="linear-gradient-18" x1="949.72" y1="2066.89" x2="949.72" y2="1640.75" gradientTransform="matrix(1, 0, 0, 1, 0, 0)" xlink:href="#linear-gradient"/><linearGradient id="linear-gradient-19" x1="37.07" y1="250.71" x2="368.09" y2="250.71" gradientTransform="matrix(1, 0, 0, 1, 0, 0)" xlink:href="#linear-gradient"/><linearGradient id="linear-gradient-20" x1="298.15" y1="317.25" x2="500.78" y2="530.85" xlink:href="#linear-gradient-15"/></defs><g id="Layer_4" data-name="Layer 4"><rect class="cls-1" x="40.3" y="41.71" width="1488.4" height="2240.59" rx="43.34"/></g><g id="final"><rect class="cls-2" x="110.59" y="2068.6" width="243.3" height="7" transform="translate(-1397.17 771.12) rotate(-45)"/><rect class="cls-3" x="444.96" y="2007.05" width="679.09" height="12"/><rect class="cls-4" x="545.01" y="2070.4" width="478.98" height="7"/><path class="cls-5" d="M1177.58,1378.74H952.48v-12h225.1Zm-60.09,23H892.38v12h225.11Z"/><path class="cls-6" d="M1425.84,1171.84H1286v-12h139.82Zm0-51.15H1286v12h139.82ZM1336.36,1199H1286v12h50.34Z"/><path class="cls-7" d="M1293.83,279c-7.95-17.17-14.58-44.25-.95-75.8l-10.1-4.36-9.6-5.37c-16.77,30-42.3,41.21-60.76,45.33l4.79,21.47a119.27,119.27,0,0,0,27.08-9.55l-50.62,98.9-29.55-81.13-88.38,177.87,19.7,9.79L1161,324.23l29.27,80.35,74.4-145.38a118.25,118.25,0,0,0,9.2,29.07Z"/><polygon class="cls-8" points="147.7 961.31 166.49 972.74 301.13 751.35 319.92 803.38 340.61 795.9 306.21 700.65 147.7 961.31"/><path class="cls-9" d="M470.16,899.67a418.78,418.78,0,0,1-3.77-56,414,414,0,0,1,13.84-106.42l11.6,3.09a402,402,0,0,0-13.44,103.33,406.21,406.21,0,0,0,3.66,54.42Zm747.79,180A413,413,0,0,0,753.21,450.4l3.66,11.42a400.76,400.76,0,0,1,122.33-19c221,0,400.82,179.81,400.82,400.82a398.57,398.57,0,0,1-70.84,227.3Zm-33.9,23.89c-73.57,86.15-182.94,140.86-304.85,140.86-7.58,0-15.24-.22-22.77-.64l-.67,12c7.75.44,15.64.66,23.44.66a411.63,411.63,0,0,0,291.91-120.91q11.28-11.28,21.59-23.29Z"/><path class="cls-10" d="M1371.06,2073.9h-7V1339h7Zm0-1804.42h-7v714h7Z"/><path class="cls-11" d="M1484,2295H85a56.06,56.06,0,0,1-56-56V85A56.06,56.06,0,0,1,85,29H1484a56.06,56.06,0,0,1,56,56V2239A56.06,56.06,0,0,1,1484,2295ZM85,51A34,34,0,0,0,51,85V2239a34,34,0,0,0,34,34H1484a34,34,0,0,0,34-34V85a34,34,0,0,0-34-34Z"/><path class="cls-12" d="M1447.52,2260h-1326l3.11-8.14a40.63,40.63,0,0,0-52.45-52.45L64,2202.52v-2081l8.14,3.11a40.63,40.63,0,0,0,52.45-52.45L121.48,64h1326l-3.11,8.14a40.65,40.65,0,0,0,52.45,52.45l8.14-3.11v2081l-8.14-3.11a40.63,40.63,0,0,0-52.45,52.45ZM138.18,2248H1430.82a52.65,52.65,0,0,1,62.18-62.18V138.18A52.65,52.65,0,0,1,1430.82,76H138.18A52.69,52.69,0,0,1,76,138.18V2185.82A52.65,52.65,0,0,1,138.18,2248Z"/><path class="cls-13" d="M1135.87,1023.26l-1-1h-15.55a15.05,15.05,0,1,0,0,7h12.65l113.52,113.52,5-5Zm-31.2,10.52a8,8,0,1,1,8-8A8.06,8.06,0,0,1,1104.67,1033.78Z"/><path class="cls-14" d="M1191.2,1546.21H357.8l-44.34,44.34v345.9l44.34,44.34h833.4l44.34-44.34v-345.9Zm22.34,381.13-31.46,31.45H366.92l-31.46-31.45V1599.66l31.46-31.45h815.16l31.46,31.45Z"/><path class="cls-15" d="M939.81,927l-18.57.76L890.16,929l24-25.89L925.2,891.2l-12-29.32-20.36,4.91-78.29,18.88a151.67,151.67,0,0,0-248,106L327.72,860.83l-30.28-16.58L295.2,878.7l-6.31,96.68-.45,6.94,3.61,5.93L313,1022.63l-31.87-8.18,5.2,33,11.91,75.66,1.44,9.13,7.52,5.37,32.63,23.26-1.15.19-39.22,6.71L326,1197.47,391.83,1271,285,1298.83l-63.2,16.44,60.26,25.15,169.55,70.77,5.38,2.24,5.78-.71,210.89-25.92,9.22-1.14,5.62-7.4,143.1-188.52,3.4-4.48.84-5.56,23.81-158.89,75.19-53.12,16.78-11.85Zm-100.53,81.28-25.21,168.18L671,1365l-210.89,25.92-169.55-70.76,172.35-44.84-54.65-18.92-65.86-73.56,53.25-9.11-75.67-54L308,1044.07l51.85,13.32-49.05-80.58,6.31-96.68,274,150.07A129.66,129.66,0,0,1,808.46,909.77L898,888.18l-60.24,65,84.37-3.46Z"/><path class="cls-16" d="M617.6,299.21c-84.5,28.05-151.87,72.4-203,132.17l16,15.19c1.92-2.26,3.85-4.5,5.82-6.71A396.42,396.42,0,0,1,519,369.66a461.93,461.93,0,0,1,86.88-43L808.51,777.16,339.68,623.27a528.12,528.12,0,0,1,35.45-92.46,435.13,435.13,0,0,1,30.43-51.59l-16.14-15.37q-51.78,74-76.33,173.84L849,813.62Z"/><path class="cls-17" d="M703.05,1730.67l1.56,4v44.23h-12V1737l-9.68-10.67h-94l-4.56-9.9C595,1704,604.76,1682.34,602.88,1665a29.9,29.9,0,0,0-7.84-17.73l-82.66,82.65-8.48-8.48,86.65-86.65,7.86-.55c9.54,7.22,15.06,17.13,16.4,29.47,1.87,17.21-5.15,36.45-14.09,50.64h84.87l4.44,2Zm-59,135.53H510.19v12H651l35.8-61-10.35-6.07Z"/><path class="cls-18" d="M472.57,1739.83h22v124.6h-22Zm-27.45,124.6h12v-124.6h-12Z"/><path class="cls-19" d="M821.19,1835.78h21v12H788.53v-12h20.66V1704l-21.69,38.8L777,1736.9,810,1678l11.23,2.93Zm103-129.19v113.18a31.66,31.66,0,1,1-63.31,0V1706.59a31.66,31.66,0,1,1,63.31,0Zm-31.65-19.66a19.47,19.47,0,0,0-9.48,2.45l28.48,135.32a19.54,19.54,0,0,0,.65-4.93V1706.59A19.67,19.67,0,0,0,892.57,1686.93Zm0,152.5a19.51,19.51,0,0,0,9.34-2.37L873.48,1702a19.47,19.47,0,0,0-.57,4.61v113.18A19.68,19.68,0,0,0,892.57,1839.43Zm121.7-111,.1-.22a38.24,38.24,0,0,0,3.47-16c0-20.59-16.08-37.34-35.84-37.34s-35.85,16.75-35.85,37.34h12c0-13.7,10.7-24.84,23.85-24.84s23.84,11.14,23.84,24.84a25.46,25.46,0,0,1-2.26,10.5l-62.65,125H1018v-12.5H960.73Zm102.86-32.3-9.88-6.81-48.83,70.84V1685h-12v162.78h12v-66.47l12.69-18.42,40.35,90.46,11-4.89-43.33-97.14Z"/><path class="cls-20" d="M313.09,237.13H166.56v-12H313.09Zm-69.41,27.16H166.56v12h77.12Z"/><path class="cls-21" d="M488.1,490.79a15.06,15.06,0,0,0-14.62,11.55H460.83L281.08,322.59l-4.95,5L456.9,508.31l1,1h15.55a15,15,0,1,0,14.62-18.55Zm0,23.1a8,8,0,1,1,8-8.05A8.06,8.06,0,0,1,488.1,513.89Z"/></g></svg>