<?xml version="1.0" encoding="utf-8"?>
<!-- Generator: Adobe Illustrator 27.0.0, SVG Export Plug-In . SVG Version: 6.00 Build 0)  -->
<svg version="1.1" id="Layer_1" xmlns="http://www.w3.org/2000/svg" xmlns:xlink="http://www.w3.org/1999/xlink" x="0px" y="0px"
	 viewBox="0 0 1569 2324" style="enable-background:new 0 0 1569 2324;" xml:space="preserve">
<style type="text/css">
	.st0{fill:#18181A;}
	.st1{fill:url(#SVGID_1_);}
	.st2{fill:url(#SVGID_00000080203256718228752840000006484393266463152537_);}
	.st3{fill:url(#SVGID_00000059276499663724752180000012807445709124088223_);}
	.st4{fill:url(#SVGID_00000054986757380611219290000016630329135724810133_);}
	.st5{fill:url(#SVGID_00000077299569567230466680000010721126024307312018_);}
	.st6{display:none;fill:url(#SVGID_00000033342993362501557960000011900667721623643785_);}
	.st7{display:none;fill:url(#SVGID_00000118371609170627910180000008084475398901463949_);}
	.st8{display:none;fill:url(#SVGID_00000014603208357558845490000007312896235278340006_);}
	.st9{display:none;fill:url(#SVGID_00000057869815775887646140000013135629585376603553_);}
	.st10{display:none;fill:url(#SVGID_00000151545870795494458230000007501923133479668131_);}
	.st11{display:none;fill:url(#SVGID_00000183928464805648817840000002407452934579441321_);}
</style>
<g id="Layer_4">
	<path class="st0" d="M83.6,41.7h1401.7c23.9,0,43.3,19.4,43.3,43.3V2239c0,23.9-19.4,43.3-43.3,43.3H83.6
		c-23.9,0-43.3-19.4-43.3-43.3V85.1C40.3,61.1,59.7,41.7,83.6,41.7z"/>
</g>
<g id="final">
	
		<linearGradient id="SVGID_1_" gradientUnits="userSpaceOnUse" x1="612.74" y1="1518.89" x2="612.74" y2="1237.1" gradientTransform="matrix(1 0 0 -1 0 2324)">
		<stop  offset="0" style="stop-color:#4885F8"/>
		<stop  offset="1" style="stop-color:#F0919F"/>
	</linearGradient>
	<path class="st1" d="M781.4,805.1H518.7c-41.2,0-74.5,33.4-74.5,74.5v207.2h7V879.7c0-37.3,30.3-67.5,67.5-67.5h262.7V805.1z"/>
	
		<linearGradient id="SVGID_00000020366921809125901210000007311788863629204395_" gradientUnits="userSpaceOnUse" x1="1039.86" y1="632" x2="1039.86" y2="256.5" gradientTransform="matrix(1 0 0 -1 0 2324)">
		<stop  offset="0" style="stop-color:#4885F8"/>
		<stop  offset="1" style="stop-color:#F0919F"/>
	</linearGradient>
	<path style="fill:url(#SVGID_00000020366921809125901210000007311788863629204395_);" d="M1305.5,1692h7v327
		c0,26.8-21.7,48.5-48.5,48.5H767.2l4-7H1264c22.9,0,41.5-18.6,41.5-41.5V1692z M887.6,1874.5h264.8c26.8,0,48.5-21.7,48.5-48.5
		v-134h-7v134c0,22.9-18.6,41.5-41.5,41.5H887.6c-22.9,0-41.5-18.6-41.5-41.5v-134h-7v134C839.1,1852.8,860.8,1874.5,887.6,1874.5z"
		/>
	
		<linearGradient id="SVGID_00000067208233656094737030000000650107121713514687_" gradientUnits="userSpaceOnUse" x1="763.815" y1="463.01" x2="763.815" y2="2067.5" gradientTransform="matrix(1 0 0 -1 0 2324)">
		<stop  offset="0" style="stop-color:#4885F8"/>
		<stop  offset="1" style="stop-color:#F0919F"/>
	</linearGradient>
	<path style="fill:url(#SVGID_00000067208233656094737030000000650107121713514687_);" d="M222.6,1857.6l-7,3.4V305
		c0-26.7,23.6-48.5,52.7-48.5h412.4v7H268.3c-25.2,0-45.7,18.6-45.7,41.5L222.6,1857.6z M1264,257h-197.5l6.4,6H1264
		c23.2,0,42,18.8,42,42v169.5l6,5.6V305C1312,278.5,1290.5,257,1264,257z"/>
	
		<linearGradient id="SVGID_00000067203987634733080620000012513836043625270965_" gradientUnits="userSpaceOnUse" x1="784.5" y1="2295" x2="784.5" y2="29" gradientTransform="matrix(1 0 0 -1 0 2324)">
		<stop  offset="1.000000e-02" style="stop-color:#F0919F"/>
		<stop  offset="1" style="stop-color:#4885F8"/>
	</linearGradient>
	<path style="fill:url(#SVGID_00000067203987634733080620000012513836043625270965_);" d="M1484,2295H85c-30.9,0-56-25.1-56-56V85
		c0-30.9,25.1-56,56-56h1399c30.9,0,56,25.1,56,56v2154C1540,2269.9,1514.9,2295,1484,2295z M85,51c-18.8,0-34,15.2-34,34v2154
		c0,18.8,15.2,34,34,34l0,0h1399c18.8,0,34-15.2,34-34l0,0V85c0-18.8-15.2-34-34-34H85z"/>
	
		<linearGradient id="SVGID_00000039823952239999994180000017681357761010962859_" gradientUnits="userSpaceOnUse" x1="784.48" y1="2260" x2="784.48" y2="64" gradientTransform="matrix(1 0 0 -1 0 2324)">
		<stop  offset="0" style="stop-color:#4885F8"/>
		<stop  offset="0.99" style="stop-color:#F0919F"/>
	</linearGradient>
	<path style="fill:url(#SVGID_00000039823952239999994180000017681357761010962859_);" d="M1447.5,2260h-1326l3.1-8.1
		c8-21-2.5-44.4-23.5-52.4c-9.3-3.6-19.7-3.6-29,0l-8.2,3.1v-2081l8.1,3.1c21,8,44.4-2.5,52.4-23.5c3.6-9.3,3.6-19.7,0-29l-3.1-8.2
		h1326l-3.1,8.1c-8,21,2.6,44.5,23.5,52.4c9.3,3.5,19.6,3.5,28.9,0l8.1-3.1v2081l-8.1-3.1c-21-8-44.4,2.5-52.4,23.5
		c-3.6,9.3-3.6,19.7,0,29L1447.5,2260z M138.2,2248h1292.6c-5.9-28.5,12.5-56.3,41-62.2c7-1.4,14.2-1.4,21.2,0V138.2
		c-28.5,5.9-56.3-12.5-62.2-41c-1.4-7-1.4-14.2,0-21.2H138.2c5.8,28.5-12.6,56.3-41.1,62.2c-7,1.4-14.2,1.4-21.1,0v2047.6
		c28.5-5.9,56.3,12.5,62.2,41C139.6,2233.8,139.6,2241,138.2,2248z"/>
	
		<radialGradient id="SVGID_00000114035194629253512050000009774687511913545861_" cx="1039.0601" cy="918.2201" r="338.9201" gradientTransform="matrix(1 0 0 -1 0 2324)" gradientUnits="userSpaceOnUse">
		<stop  offset="0" style="stop-color:#F0919F"/>
		<stop  offset="1" style="stop-color:#4885F8"/>
	</radialGradient>
	<path style="display:none;fill:url(#SVGID_00000114035194629253512050000009774687511913545861_);" d="M1011.4,1427.2l-200.8-35.9
		l1.2-6.9l200.8,35.9L1011.4,1427.2z M1267.5,1391.3l-1.2-6.9l-200.8,35.9l1.2,6.9L1267.5,1391.3z"/>
	
		<linearGradient id="SVGID_00000169547512491364513580000002803504696197199499_" gradientUnits="userSpaceOnUse" x1="530.85" y1="1051.085" x2="1354.67" y2="1051.085" gradientTransform="matrix(1 0 0 -1 0 2324)">
		<stop  offset="0" style="stop-color:#4885F8"/>
		<stop  offset="1" style="stop-color:#F0919F"/>
	</linearGradient>
	<polygon style="display:none;fill:url(#SVGID_00000169547512491364513580000002803504696197199499_);" points="1039.1,1292.4 
		1256.6,1260.3 1255.6,1253.4 1039.1,1285.4 822.6,1253.4 821.5,1260.3 1038.6,1292.4 	"/>
	
		<linearGradient id="SVGID_00000059307100218181933060000008075067293492303508_" gradientUnits="userSpaceOnUse" x1="463.04" y1="208.9102" x2="463.04" y2="2037.9203" gradientTransform="matrix(1 0 0 -1 0 2324)">
		<stop  offset="0" style="stop-color:#4885F8"/>
		<stop  offset="1" style="stop-color:#F0919F"/>
	</linearGradient>
	<path style="display:none;fill:url(#SVGID_00000059307100218181933060000008075067293492303508_);" d="M762.6,1915.1l-50.9,97.4
		l34.7,36.9l-41.7,65.6H221.3l-41.7-65.6l34.7-36.9l-50.9-97.4l127.1-60.6l2.5-9.8c-18.1-8-26.2-29.2-18.2-47.3
		c5.1-11.4,15.7-19.4,28.1-21l26.1-21.7c18.8-59,44.5-244.1,39.1-302.3l-37.5-44.7l47.4-36l0.8-11.2
		c-37.6-25.2-59.9-65.2-59.9-108.3c0-73,63.8-132.5,142.7-133.8l0,0h2.6c78.9,1.3,142.7,60.8,142.7,133.8
		c0,43.1-22.2,83.1-59.9,108.3l0.8,11.2l47.4,36l-37.5,44.7c-5.4,58.2,20.3,243.4,39.1,302.3l26,21.7c19.6,2.5,33.5,20.5,31,40.1
		c-1.6,12.4-9.5,23.1-21,28.2l2.5,9.8L762.6,1915.1z M690,2023l-224.7,40.7h-4.4l-0.6-0.1L236.1,2023l-27.5,29.2l25.4,39.9h458.1
		l25.3-39.9L690,2023z M731.2,1925.6L616,1870.7l-11.9-46h14.9c6.9-0.1,12.4-5.7,12.3-12.5c0-0.1,0-0.1,0-0.2
		c0-7-5.7-12.7-12.7-12.7h-4.2l-37.1-31l-1-3c-20.3-59.6-48.1-260.3-40.8-318.9l0.4-3.4l26.4-31.5l-36.4-27.7l-2.6-35.5l6-3.6
		c34.3-20.6,54.8-55.2,54.8-92.4c0-60.7-54.2-110.2-121-110.8c-66.8,0.6-121,50.1-121,110.8c0,37.2,20.5,71.8,54.8,92.4l6.1,3.6
		l-2.6,35.5l-36.4,27.7l26.4,31.5l0.4,3.4c7.3,58.6-20.5,259.3-40.8,318.9l-1,3l-37.1,31h-4.2c-7,0-12.8,5.7-12.8,12.7l0,0
		c-0.2,6.9,5.3,12.6,12.1,12.7c0.1,0,0.2,0,0.3,0h14.9l-11.9,46l-115.3,54.9l43.7,83.6l223.5,40.5h1.9l223.5-40.5L731.2,1925.6z"/>
	
		<linearGradient id="SVGID_00000021111480981863409300000011716894885864985230_" gradientUnits="userSpaceOnUse" x1="918.614" y1="2108.3999" x2="918.614" y2="267.1101" gradientTransform="matrix(1 0 0 -1 0 2324)">
		<stop  offset="0" style="stop-color:#4885F8"/>
		<stop  offset="1" style="stop-color:#F0919F"/>
	</linearGradient>
	<path style="display:none;fill:url(#SVGID_00000021111480981863409300000011716894885864985230_);" d="M899.5,217L878,243
		 M970,218.9c18.7,5.4,38,16.2,57.8,32.2l0.5,0.4l274.3,249.6c36.8,33.6,58.5,80.7,60.3,130.5l16.3,501.7h-118.8v72.3l25.9,24.3
		c29,2.7,50.4,28.4,47.7,57.4c-1.5,16.1-10.2,30.6-23.7,39.4l10.5,39.4l109.7,64.4l-73.6,122.2l46.5,37.9l-54.5,77.8H729.2
		l-54.5-77.8l46.5-37.9l-73.6-122.2l109.7-64.4l10.5-39.4c-24.4-15.9-31.3-48.6-15.4-73.1c8.8-13.5,23.3-22.2,39.4-23.7l23.3-22
		L712.7,997.8L810,850.5V674.3l-245.3-61.8l-49.3,32l-5.9-10.9c-11.2-20.6-35.9-29.8-57.8-21.5l-2.2,0.8l-11.4-18l24.5-31.8
		l-52,11.2l-2.3-11.5c-6.7-33.5,9.9-67.3,40.5-82.5l-2.4-16.4l7.6-3.6C572.2,403.6,653,373,700.3,367l5.2-131.9l208.6-19.5
		l-26.2,26.5l-160.2,14.1l-5.2,132.2L712,389c-40.9,2.1-121.7,31.8-240.3,88.3l2.6,17.9l-9,3.1c-18.3,6.3-31.6,22.1-34.7,41.2
		c-0.4,2.4-0.6,4.7-0.7,7.1l89.3-19.2l-45.5,58.9c19.3,1.5,37,10.9,49.1,26l37.8-24.5l290.1,73.1l61.2-61.2v-33h23v42.5l-77.1,77.1
		l-24.7-6.3v177.3l-93.8,142.1L839.4,1205l200.6,27.7l-1.9,13.9l-200.8-27.8l-36,33.9h-4.6c-16.4,0-29.8,13.3-29.8,29.8
		c0,12.2,7.4,23.1,18.7,27.6l5.2,2.1l248.3,37.1l244.5-35.7l8.8-3.5c15.3-6.1,22.7-23.4,16.6-38.7c-4.5-11.3-15.5-18.7-27.7-18.7
		h-4.6l-39.5-37.2v-105.3h118l-15.5-477.9c-1.5-43.6-20.5-84.8-52.8-114.3L1013,268.7c-14.2-11.5-28-19.8-41.1-24.9 M954.8,215.6
		l6.2,24.6l11,3.6l-1.9-24.9 M748.6,1553.6l290.4,41.6l290.4-41.6l69.2-115l-97.7-57.5l-14.3-53.8l-247.5,36.1l-1-0.2l-246.3-36.8
		l-14.6,54.7l-97.8,57.4L748.6,1553.6z M1330.1,1560.6l-291,41.7l-0.5-0.1l-290.5-41.6l-42.2,34.4l35.3,50.5h595.7l35.3-50.5
		L1330.1,1560.6z"/>
	
		<linearGradient id="SVGID_00000159441231389487793250000014380693273585670529_" gradientUnits="userSpaceOnUse" x1="463.055" y1="273.01" x2="463.055" y2="1201.26" gradientTransform="matrix(1 0 0 -1 0 2324)">
		<stop  offset="0" style="stop-color:#F0919F"/>
		<stop  offset="1" style="stop-color:#4885F8"/>
	</linearGradient>
	<path style="display:none;fill:url(#SVGID_00000159441231389487793250000014380693273585670529_);" d="M326.8,1868.5l127.1,28.8
		l-1.5,6.8l-127.1-28.8L326.8,1868.5z M476.4,1897.3l1.6,6.8l122.9-28.8l-1.6-6.8L476.4,1897.3z M461.1,1794.5h3.9l84.3-19.1
		l-1.5-6.8l-83.5,18.9h-2.4l-83.5-18.9l-1.5,6.8l83.9,19L461.1,1794.5z M521.1,1442.1H405v7h116L521.1,1442.1z M501.2,1359.6
		l-2.6-6.5c-22,8.8-46,8.7-71.2-0.1l-2.3,6.6c12.6,4.5,25.8,6.9,39.2,7C476.9,1366.7,489.4,1364.3,501.2,1359.6L501.2,1359.6z"/>
	
		<linearGradient id="SVGID_00000137816449633253040970000015819302200443230625_" gradientUnits="userSpaceOnUse" x1="1040.2251" y1="2278.6499" x2="1040.2251" y2="1555.85" gradientTransform="matrix(1 0 0 -1 0 2324)">
		<stop  offset="0" style="stop-color:#F0919F"/>
		<stop  offset="1" style="stop-color:#4885F8"/>
	</linearGradient>
	<path style="display:none;fill:url(#SVGID_00000137816449633253040970000015819302200443230625_);" d="M1263.9,748.7l-8.8-8.1
		l39.4-42.7l8.8,8.1L1263.9,748.7z M960.9,240.2c5.7,31.1,4.5,65.5-3.5,104.1l-0.6,2.7l-19.7,11.2l60.5,27.4l0.9,1.2l236.6,314.6
		l28.9-32l8.9,8l-38.7,42.8l-7.4-9.8l0,0l-237-315.3l-65.6-29.7l-33.3,18.9L885,374l61.2-34.8c9-45,8.3-83.7-2.2-118l-12.4,13.9
		l-3,3.4L827.1,352.4l-46.5,14.2l-3.5-11.5l43.3-13.3l90.8-101.8l23.5-26.4l13.8-15.5l3.5,9.4c1,2.7,1.9,5.4,2.8,8.1
		C957.1,223.6,959.2,231.8,960.9,240.2L960.9,240.2z"/>
</g>
</svg>
